<svg width="500" height="500" xmlns="http://www.w3.org/2000/svg">
 <g id="Layer_1">
  <title>Layer 1</title>
  <path id="svg_10" d="m230,153.8" opacity="NaN" stroke-width="2" stroke="#000" fill="none"/>
  <path d="m5.2,7.92c0,0.8 0,1.6 0,2.4c0,0.8 0,1.6 0,2.4c0,0 0,0.8 0,1.6c0,0.8 0.49385,0.8609 0.8,1.6c0.43296,1.04525 2.73509,1.93509 4,3.2c1.26491,1.26491 2.4,0.8 2.4,1.6c0,0.8 0,1.6 0,1.6c0,0.8 0,1.6 0,2.4c0,0.8 0,0.8 0,1.6c0,1.6 0,2.4 0,2.4c0,0.8 0,2.4 0,3.2c0,0 0.30615,0.8609 0,1.6c-0.43296,1.04525 -0.8,1.6 -0.8,1.6c0,0.8 0,2.4 0,3.2c0,0 0,0.8 0,2.4c0,0.8 0,0.8 0,1.6c0,1.6 0,2.4 0,2.4c0,0.8 0.30615,1.6609 0,2.4c-0.43296,1.04525 -0.43296,2.15475 0,3.2c0.30615,0.7391 0,0.8 0,1.6c0,0.8 0,1.6 0,2.4c0,0 -0.8,0.8 -0.8,1.6c0,0.8 0,1.6 0,3.2c0,1.6 0,2.4 0,3.2c0,0.8 0,1.6 0,2.4c0,0.8 -0.8,2.4 -0.8,2.4c0,1.6 0,2.4 -0.8,3.2c0,0 -0.8,0 -0.8,2.39999c0,0.8 0,2.4 0,4c0,0.8 0.8,1.60001 0.8,2.4c0,0.8 0,0.8 0,3.2c0,0.8 0,0.8 0,1.6c0,0.8 -1.16704,1.35475 -1.6,2.4c-0.30614,0.7391 0,1.6 0,2.39999c0,0.8 -1.13137,2.86863 0,4c0.56569,0.56569 1.6,1.60001 1.6,2.4c0,0.8 0.8,0.8 0.8,2.4c0,0.8 0,1.6 0,1.6c0.8,1.6 0.8,2.4 0.8,3.2c0,0 0,0.8 0,2.4c0,0.8 0,1.6 0,3.2c0,0.8 -0.36704,0.55475 -0.8,1.6c-0.30615,0.73911 0,1.6 0,2.4c0,0 0,0.8 0,1.6c0,0.8 0,1.6 0,3.2c0,1.6 0.93847,2.28218 1.6,3.2c1.04596,1.45119 1.2324,1.6428 1.6,3.2c0.41099,1.741 1.6,2.4 1.6,4c0,0.8 0,0.8 0,1.60001c0,0.8 -0.23432,1.83431 -0.8,2.39999c-0.56569,0.56569 -0.6162,0.8214 -0.8,1.60001c-0.41099,1.741 -0.8,1.59999 -0.8,3.2c0,1.60001 0.49385,2.46089 0.8,3.2c0.43296,1.04526 1.93223,1.75101 2.4,2.40001c1.47922,2.05229 3.059,1.989 4.8,2.39999c0.7786,0.18381 2.09386,1.6609 2.4,2.39999c0.43296,1.04526 0.8,3.20001 0.8,4c0,0 0,0.8 0,2.40001c0,0.8 -0.8,1.59999 -0.8,3.2c0,0.8 0,0.8 0,1.60001c0,0.79999 0.12815,1.61032 0,2.39999c-0.40523,2.49715 -0.619,4.66817 -4.8,6.39999c-0.7391,0.30615 -2.63431,1.83432 -3.2,2.40001c-0.56569,0.56569 0,0.8 0,1.59999c0,1.60001 -0.61229,2.5218 0,4c0.43296,1.04526 1.29385,1.6609 1.6,2.40001c1.29887,3.13574 2.78901,2.25899 3.2,4c0.1838,0.77859 0,1.59999 0,3.2c0,4 -0.39698,4.72623 -0.8,8c-0.09775,0.79401 0.08272,3.12506 0.8,4c1.8287,2.23065 1.6,4.8 1.6,5.60001c0,1.59999 -0.8,2.39999 -1.6,3.2c-0.8,0.8 -0.8,1.59999 -0.8,2.39999c0,2.40001 0,3.2 0,5.60001c0,0.8 0.8,2.39999 0.8,3.2c0,1.60001 0,2.39999 0,4c0,1.60001 -1.6,3.2 -1.6,4c0,0.8 -0.1838,1.6214 0,2.39999c0.411,1.74101 1.43188,3.26276 2.4,5.60001c0.68457,1.65269 0.8,1.60001 0.8,3.2c0,1.60001 0.73521,3.2856 0,6.40001c-0.41099,1.741 -0.8,3.2 -0.8,4c0,2.39999 -0.37771,5.41115 3.2,7.2c0.71554,0.35777 2.4,2.39999 3.2,3.2c0.8,0.8 1.03431,1.03432 1.6,1.60001c0.56569,0.56569 0.8,1.59999 0.8,2.39999c0,1.59999 -0.00001,4.00002 -0.8,5.59999c-0.80001,1.60001 -0.8,3.20001 -0.8,3.20001c0,3.20001 -0.84118,4.23895 0,5.60001c0.94046,1.5217 2.21561,1.91278 4,4.79999c1.33001,2.15198 2.4,4 3.2,5.60001c0.8,1.60001 0.8,2.39999 0.8,3.20001c0,0.79999 0,1.59998 -0.8,3.19998c-0.8,1.60001 -1.07,1.84802 -2.4,4c-1.18959,1.9248 -2.4,2.39999 -2.4,2.39999c-0.8,2.40002 -0.55403,3.34882 -1.6,4.80002c-0.66152,0.91782 -1.6,3.19998 -2.4,4.79999c0,0 0,2.39999 0,3.20001c0,0.79999 0,2.39999 0,4c0,0.79999 0.38444,2.43097 0,4.79999c-0.40523,2.49716 -1.87001,4.24799 -3.2,6.39999c-0.5948,0.9624 -0.8,1.60001 -0.8,2.40002c0,1.59998 0,2.39999 0,3.19998c0,0.80002 0.36761,2.44281 0,4c-0.41099,1.741 -0.8,3.20001 -1.6,4c0,0 -0.8,1.60001 -0.8,3.20001c0,0.79999 -0.38901,1.45901 -0.8,3.19998c-0.36761,1.55719 -0.8,3.20001 -0.8,4.80002c0,2.39999 1.18901,3.05899 1.6,4.79999c0.18381,0.77863 2.39999,2.39999 3.2,3.20001c0.79999,0.79999 0.55476,1.96704 1.6,2.39999c0.7391,0.30615 0.8,0.79999 0.8,0.79999c0,3.20001 -0.76414,2.83932 -1.6,5.60001c-0.23183,0.76569 -0.8,3.20001 -0.8,4c0,2.39999 -1.16705,2.15475 -1.6,3.20001c-0.30614,0.73911 0,3.19998 0,3.19998c0.8,2.40002 0.98771,4.1218 1.6,5.60001c0.43295,1.04526 3.13918,4.03189 4,5.60001c2.24472,4.08917 1.48154,4.9827 2.4,7.20001c0.43296,1.04523 0.8,3.19998 0.8,4c0,1.59998 0.36761,3.2428 0,4.79999c-0.41099,1.741 -0.27001,2.64798 -1.6,4.79999c-0.5948,0.9624 -0.8,2.40002 -0.8,3.20001c0,1.60001 -0.8,3.20001 -0.8,4c0,0.79999 0,2.39999 0,3.20001c0,0.79999 -0.46492,2.73508 0.8,4c1.26491,1.26489 1.6,1.59998 1.6,1.59998c0.8,0.80002 1.83431,1.03433 2.4,1.60001c0.5657,0.5657 -0.33138,2.06863 0.8,3.20001c0.56569,0.56567 0.8,1.60001 0.8,1.60001c0,3.19998 -0.2052,5.43759 -0.8,6.39999c-1.32999,2.15201 -1.37128,3.36932 -3.2,5.60001c-0.71727,0.87494 -1.29386,2.46088 -1.6,3.19998c-0.86591,2.09052 -2.73509,2.73511 -4,4c-1.26492,1.26492 -0.8,2.39999 -0.8,3.20001c0,0.79999 -0.93848,2.28217 -1.6,3.19998c-1.04597,1.4512 -1.98901,2.25903 -2.4,4c-0.18381,0.77863 -0.8,1.60001 -0.8,2.40002c0,0.79999 0,1.59998 0,3.19998c0,0 -0.13847,2.2822 -0.8,3.20001c-1.04595,1.4512 -2.5218,2.58768 -4,3.19998c-1.04526,0.43295 -1.6,1.60001 -1.6,2.40002c0,0.79999 0.30616,1.66089 0,2.39999c-0.43296,1.04523 -1.03431,1.03433 -1.6,1.60001c-0.56568,0.56567 0.30616,1.66089 0,2.39999c-0.43296,1.04523 -0.8,1.60001 -0.8,2.39999c0,0.79999 0,1.60001 0,2.39999c0,1.60001 0,2.39999 0.8,2.39999c0,0 0,1.60001 0,2.40002c0,0.79999 0,0.79999 0,1.59998c0,0 2.4,0 3.2,0c0,0 0.8,0 0.8,0.80002c0,0.79999 0,1.60001 0.8,1.60001c0.8,0 1.6,0 2.4,0c1.6,0 1.9095,-0.7341 4,-1.60001c0.7391,-0.30615 1.6609,-0.49387 2.4,-0.80002c1.04524,-0.43295 1.78269,-1.71841 4,-0.79999c1.04524,0.43295 1.35474,2.76706 2.4,3.20001c0.7391,0.30615 1.6,0 2.4,0.79999c0.8,0.79999 2.06863,-0.33139 3.2,0.79999c0.5657,0.5657 0,0.80002 0.8,0.80002c2.4,0 2.30284,-0.39478 4.8,-0.80002c0.78967,-0.12814 1.6,-1.59998 3.2,-1.59998c0.8,0 0.8,0 2.4,0c1.6,0 2.4,0 3.2,0c1.6,0 2.259,1.189 4,1.59998c0.7786,0.18381 0.8,0 1.6,0c2.4,0 2.4,0 5.6,0c0.8,0 2.15475,-1.16702 3.2,-1.59998c0.7391,-0.30615 2.2822,-0.93848 3.2,-1.60001c1.45119,-1.04596 1.83433,-1.03433 2.4,-1.60001c1.69706,-1.69705 3.2,0 4.8,0c0.8,0 1.35475,0.36703 2.39999,0.79999c0.73911,0.30615 2.63432,0.23434 3.2,0.80002c1.13138,1.13138 0.80001,1.59998 2.4,3.19998c0.8,0.80002 0.8,1.60001 1.6,1.60001c1.6,0 4.0428,-0.43237 5.6,-0.79999c1.741,-0.41101 2.4,-0.80002 3.2,-1.60001c0,0 0.8214,-0.61618 1.60001,-0.79999c1.741,-0.41101 1.1095,-1.53412 3.2,-2.40002c1.4782,-0.6123 2.08884,0.05756 4,-1.59998c1.3514,-1.17206 2.73509,-1.93512 4,-3.20001c1.26492,-1.26492 1.6,-2.39999 2.4,-2.39999c0.8,0 2.5218,-0.6123 4,0c3.13575,1.29886 3.2,3.19998 4.8,4.79999c0.8,0.80002 1.60001,1.60001 2.4,1.60001c1.6,0 3.231,0.38443 5.6,0c2.49715,-0.40521 3.2,-0.79999 3.2,-0.79999c1.60001,0.79999 2.40001,1.59998 3.20001,2.39999c0,0 0.79999,0.79999 1.59999,0.79999c0.8,0 1.70299,0.69547 4,0c2.76068,-0.83588 4.29761,-1.90808 7.2,-4c0.91782,-0.66153 3.2,-2.39999 4.8,-4c0.8,-0.79999 1.60001,-0.79999 1.60001,-0.79999c0.8,0 1.45898,-0.38901 3.2,-0.80002c1.55721,-0.36761 3.2,0 3.2,0c0.8,0 1.6609,0.30615 2.40001,0c1.04523,-0.43295 1.50522,-1.7522 4,-3.19998c1.5472,-0.89789 3.2,-0.80002 4,-0.80002c0.79999,0 1.83432,1.03433 2.39999,1.60001c0.56569,0.56567 1.35403,1.74881 2.39999,3.20001c1.32304,1.83563 1.74883,2.15402 3.20001,3.19998c0.91782,0.66153 1.59999,1.60001 4,2.40002c0,0 0.79999,0 2.39999,0c0.8,0 2.39999,0 3.2,0c0.8,0 2.43434,0.23181 3.2,0c2.76068,-0.83588 3.03424,-2.68655 4.8,-2.40002c1.11678,0.18121 1.96706,0.55475 2.40001,1.60001c0.30615,0.73911 0,1.60001 0.79999,1.60001c1.60001,0 2.86864,-1.13138 4,0c0.56567,0.56567 1.6609,0.49384 2.40001,0.79999c1.04526,0.43295 2.39999,1.60001 2.39999,1.60001c0.8,0 1.60001,0 3.20001,0c0.79999,0 2.28217,-0.93848 3.2,-1.60001c1.45119,-1.04596 2.96436,-1.07693 4.8,-2.39999c1.45119,-1.04596 3.2,-1.60001 4,-1.60001c0.79999,0 2.53847,-0.1178 3.2,0.80002c1.04596,1.4512 0.8214,1.4162 1.59999,1.60001c1.741,0.41098 2.40001,0.79999 2.40001,0.79999c0.8,0 3.2,0.79999 4,0.79999c3.2,0 4.8,0 7.2,0c0.8,0 1.50285,-0.39478 4,-0.79999c3.15868,-0.51257 3.90285,-0.39478 6.39999,-0.79999c1.57935,-0.25629 2.40001,0 4,0c0,0 1.60001,0.79999 1.60001,0.79999c1.59999,0 2.40001,0 3.2,0c0.79999,0 1.60001,0 2.39999,0c1.60001,0 2.39999,0 3.20001,0c2.39999,0 3.19998,0 5.60001,0.79999c0,0 0.79999,0 2.39999,0c0.79999,0 2.52078,0.4523 4,-1.59998c0.46777,-0.64902 0.36703,-2.95477 0.79999,-4c0.91846,-2.21735 0.80002,-2.40002 1.60001,-2.40002c0.79999,0 4,0 4.79999,0c2.40002,0 2.52182,0.18774 4,0.80002c1.04526,0.43295 3.10297,0.70294 4.80002,2.39999c0.56567,0.56567 3.19998,0.79999 4.79999,0.79999c1.60001,0 2.63431,0.5657 3.20001,0c0.56567,-0.56567 0.79999,-0.79999 1.60001,-1.59998c0,0 0,-0.80002 0.79999,-1.60001c0,0 1.189,-0.659 1.60001,-2.39999c0.18381,-0.77863 0.79999,-0.80002 0.79999,-0.80002c0.80002,0 2.40002,0 3.20001,0c0,0 0.79999,0 1.60001,0.80002c1.60001,1.59998 1.60001,2.39999 2.39999,2.39999c0.79999,0 1.60001,0.79999 2.39999,0.79999c0.80002,0 3.20001,0 3.20001,0c1.60001,0.80002 2.63431,1.83432 3.19998,2.39999c0.5657,0.5657 1.60001,0 3.20001,0c0,0 3.20001,0 4,0c1.60001,0 2.39999,0 2.39999,0c0.80002,0 2.09384,-1.66089 2.39999,-2.39999c0.43298,-1.04526 0.87833,-3.05954 2.40002,-4c0.68051,-0.42056 1.59998,-0.79999 2.39999,-0.79999c2.39999,0 4.04282,-0.36761 5.60001,0c1.74097,0.41098 2.39999,1.60001 3.19998,2.39999c0.80002,0.79999 2.39999,0.79999 3.20001,0.79999c0.79999,0 3.19998,0 3.19998,0c2.40002,0 3.10284,0.39478 5.60001,0.80002c0.78967,0.12814 1.60001,0.79999 2.39999,0.79999c0.80002,0 1.17944,-0.11948 1.60001,-0.79999c0.94046,-1.5217 2.5488,-2.15402 4,-3.20001c1.83563,-1.32306 2.09384,-3.26089 2.39999,-4c0.43298,-1.04526 3.87021,-0.12982 6.40002,2.39999c1.26492,1.26492 4.94879,3.75403 6.39999,4.80002c1.83563,1.32306 1.90952,2.33408 4,3.19998c1.47821,0.61227 2.39999,0 3.19998,0c0.80002,0 1.6214,0.18381 2.40002,0c1.74097,-0.41098 3.19998,-1.59998 4.79999,-1.59998c1.60001,0 3.32181,-0.61227 4.79999,0c2.09048,0.86591 3.20001,1.59998 3.20001,1.59998c0.79999,0 3.20001,0 4.79999,0c2.40002,0 3.20001,0 4.80002,0c0,0 0.659,0.38901 2.39999,0.80002c0.77859,0.18381 2.46088,2.09384 3.20001,2.39999c1.04523,0.43295 2.39999,1.60001 4,2.39999c0,0 1.59998,0.80002 1.59998,0.80002c0.80002,0 1.60001,0 1.60001,0c1.60001,0 3.20001,0 4,0c0.80002,0 1.60001,0 2.39999,0c0.80002,0 2.95477,-1.16705 4,-1.60001c0.73914,-0.30615 0.80002,-0.80002 1.60001,-0.80002c0.80002,0 2.39999,0 4,0c0,0 0.80002,0.80002 2.39999,0.80002c0.80002,0 0.80002,0 1.60001,0.79999c0.80002,0.80002 1.60001,0.80002 2.39999,0.80002c0,0 0.95102,-0.33224 1.60001,-0.80002c2.05231,-1.47922 1.36438,-2.67694 3.20001,-4c1.4512,-1.04596 2.39999,-1.60001 3.19998,-1.60001c0.80002,0 1.66092,-0.30615 2.40002,0c1.04526,0.43298 1.83429,1.83432 2.39999,2.40002c1.13138,1.13138 2.39999,0.79999 4,0.79999c0.79999,0 2.39999,0.79999 4,0.79999c1.60001,0 1.61032,0.12814 2.39999,0c2.49716,-0.40521 3.05902,-1.189 4.79999,-1.59998c0.77863,-0.18381 1.64279,0.43237 3.20001,0.79999c1.741,0.41098 2.39999,0.79999 3.20001,0.79999c0.79999,0 0.79999,0.80002 1.59998,0.80002c0.80002,0 1.60001,0.79999 2.40002,1.60001c0,0 2.0686,-0.33139 3.19998,0.79999c0.56567,0.56567 0.23431,1.36569 0.80002,0.79999c1.13135,-1.13135 0,-1.59998 0,-2.39999c0,-0.79999 -0.56567,-1.83432 0,-2.39999c0.56567,-0.56567 0.79999,-0.79999 0.79999,-1.60001c0,-0.79999 0,-1.60001 0,-2.39999c0,-0.79999 -1.60001,-1.60001 -1.60001,-2.39999c0,0 -0.79999,-0.80002 -0.79999,-1.60001c0,-0.79999 -0.12814,-1.61032 0,-2.39999c0.40521,-2.49716 2.76703,-2.95477 3.19998,-4c0.30615,-0.73914 -0.36703,-1.35477 -0.79999,-2.39999c-0.30615,-0.73914 -0.79999,-1.60001 -0.79999,-2.40002c0,-0.79999 0,-1.59998 0,-3.19998c0,0 0,-1.60001 0,-2.39999c0,-0.80002 0.30615,-0.8609 0,-1.60001c-0.43295,-1.04529 -0.80002,-2.39999 -0.80002,-2.39999c0,-1.60001 0,-3.20001 0,-4.80002c0,-1.60001 0.30615,-2.46088 0,-3.19998c-0.86591,-2.09052 -2.789,-3.05902 -3.19998,-4.80002c-0.18381,-0.77859 -1.16705,-2.95474 -1.60001,-4c-0.30612,-0.73911 0,-2.39999 0,-4c0,-0.79999 -0.06088,-1.29385 -0.80002,-1.60001c-1.04523,-0.43295 0.33139,-2.0686 -0.79999,-3.19998c-0.56567,-0.56567 -0.79999,-0.80002 -0.79999,-2.39999c0,-0.80002 0.79999,-1.60001 0.79999,-2.40002c0,0 -0.18381,-0.82138 0,-1.59998c0.41098,-1.741 1.73846,-3.8822 2.39999,-4.80002c1.04596,-1.4512 0.80002,-3.19998 1.60001,-4c0.79999,-0.79999 0.79999,-0.79999 0.79999,-1.60001c0,-0.79999 -0.18381,-1.62137 0,-2.39999c0.41101,-1.741 0.80002,-3.19998 0.80002,-3.19998c0,-1.60001 0.56567,-2.63434 0,-3.20001c-0.5657,-0.5657 -1.98901,-1.45901 -2.39999,-3.20001c-0.36758,-1.55719 -0.30612,-2.46088 0,-3.19998c0.43295,-1.04526 1.59998,-3.20001 1.59998,-3.20001c0,-0.79999 0,-1.60001 0,-3.19998c0,-0.80002 -1.59998,-2.40002 -1.59998,-3.20001c0,0 0,-0.79999 0,-2.39999c0,-0.80002 0,-0.80002 0,-3.20001c0,-0.79999 0,-0.79999 0,-1.60001c0,-1.59998 0,-4 0,-4.79999c0,-0.79999 -0.6123,-1.7218 0,-3.20001c0.86591,-2.09045 1.59998,-2.39999 1.59998,-3.19998c0,-0.80002 -0.36761,-0.84283 0,-2.39999c0.41101,-1.741 1.19479,-1.50284 1.60001,-4c0.12814,-0.7897 -0.30615,-0.8609 0,-1.60001c0.43295,-1.04529 0.80002,-2.39999 0.80002,-2.39999c0.79999,-1.60001 1.59998,-3.20001 1.59998,-3.20001c0,-0.79999 0,-1.60001 0,-2.39999c0,-0.80002 0.80002,-0.80002 0.80002,-1.60001c0,-0.79999 0.14099,-1.98901 -1.60001,-2.39999c-0.77859,-0.18381 -2.89389,-1.66089 -3.20001,-2.39999c-0.43295,-1.04526 -1.29382,-0.8609 -1.59998,-1.60001c-0.43295,-1.04529 -1.29385,-1.66089 -1.60001,-2.39999c-0.43295,-1.04529 -1.19479,-1.50284 -1.60001,-4c-0.38443,-2.36905 0,-2.40002 0,-3.20001c0,-0.79999 -0.92178,-0.18768 -2.39999,-0.79999c-1.04529,-0.43295 -2.55099,-1.13223 -3.20001,-1.60001c-2.05228,-1.47922 -1.60001,-2.39999 -1.60001,-3.20001c0,-0.79999 0,-1.60001 0,-2.39999c0,-0.79999 -0.36761,-1.64282 0,-3.20001c0.41101,-1.741 0.80002,-3.19998 0.80002,-4c0,-0.79999 -0.63763,-2.60519 -1.60001,-3.19998c-4.30399,-2.66 -6.86862,-1.26862 -8,-2.39999c-0.5657,-0.5657 -0.79999,-1.60001 -1.60001,-1.60001c-0.79999,0 -0.79999,-1.60001 -0.79999,-2.39999c0,0 1.189,-0.65903 1.60001,-2.40002c0.18381,-0.77859 -0.04117,-1.83893 0.79999,-3.19998c0.94046,-1.5217 1.67831,-3.05954 3.20001,-4c0.68051,-0.42056 2.89383,-2.46091 3.19998,-3.20001c0.43298,-1.04526 1.53409,-1.10953 2.39999,-3.19998c0.30615,-0.73914 -0.79999,-3.20001 -0.79999,-3.20001c0,-0.79999 0.05756,-3.16263 1.60001,-5.60001c2.49448,-3.94177 4.30112,-6.46423 5.60001,-9.60001c0.30615,-0.73911 0.24594,-1.74878 -0.80002,-3.19998c-0.66153,-0.91782 -1.1095,-2.33411 -3.19998,-3.20001c-0.73911,-0.30615 -0.61621,-0.82138 -0.80002,-1.60001c-0.41098,-1.74097 -0.79999,-2.39999 -0.79999,-3.19998c0,-1.60001 0,-2.39999 0,-3.20001c0,-0.79999 0.56567,-1.83432 0,-2.39999c-1.69705,-1.69705 -6.60986,-1.10541 -18.39999,-6.39999c-1.63187,-0.73282 -2.73138,-2.06863 -1.60001,-3.20001c0.56567,-0.56567 2.39999,-0.79999 3.19998,-1.59999c0.80002,-0.80002 2.25903,-1.18901 4,-1.60001c1.55719,-0.36761 2.77942,-0.91948 3.20001,-1.60001c0.94046,-1.52168 2.46091,-1.29384 3.20001,-1.59999c3.13574,-1.29887 3.49759,-2.70807 6.39999,-4.8c1.83563,-1.32306 5.35403,-4.94881 6.39999,-6.39999c1.32306,-1.83565 1.60001,-2.40001 1.60001,-3.20001c0,-0.79999 0,-1.59999 0,-1.59999c0,-0.8 0,-1.60001 0,-2.40001c0,-0.79999 0.30615,-1.66089 0,-2.39999c-0.86591,-2.09052 -3.37817,-2.17921 -6.39999,-4.8c-0.85471,-0.74129 -1.83432,-2.63429 -2.40002,-3.2c-2.26273,-2.26274 0.39478,-3.10284 0.80002,-5.60001c0.12814,-0.78966 -1.83896,-0.65686 -3.20001,-3.2c-0.37747,-0.70534 -1.16705,-2.95474 -1.60001,-4c-0.6123,-1.4782 0,-3.2 0,-4c0,-0.8 0,-1.59999 0,-2.39999c0,-0.8 -0.73407,-1.10951 -1.59998,-3.2c-0.6123,-1.47821 -0.61227,-3.32181 0,-4.8c1.29886,-3.13576 4.7796,-4.0164 8,-8c1.1246,-1.39113 1.59998,-3.2 1.59998,-3.2c0,-0.8 -1.13507,-1.9351 -2.39999,-3.20001c-1.26492,-1.26491 -2.39999,-1.59999 -2.39999,-3.2c0,-0.8 0,-3.2 0,-3.2c0.79999,-2.39999 1.68274,-3.12506 2.39999,-4c1.8287,-2.23067 1.26862,-2.86862 2.39999,-4c0.5657,-0.5657 1.75101,-1.13223 2.40002,-1.60001c2.05228,-1.47922 0.79999,-3.20001 1.59998,-4c0.80002,-0.8 0.80002,-2.39999 0.80002,-2.39999c0,-1.60001 -1.18903,-3.05901 -1.60001,-4.8c-0.36758,-1.55719 0,-2.39999 0,-4c0,-1.59999 1.93509,-2.60526 3.20001,-6.39999c0.25299,-0.75894 0,-2.40001 0,-3.2c0,-0.8 0,-3.20001 0,-4c0,-1.60001 0.55402,-3.34882 1.59998,-4.8c0.66153,-0.91782 0.80002,-1.60001 0.80002,-2.4c0,-1.6 0,-2.4 0,-4c0,-1.6 0.24594,-3.34881 -0.80002,-4.8c-1.32303,-1.83562 -1.59998,-3.2 -3.19998,-4c-1.60001,-0.8 -1.60001,-1.6 -3.20001,-2.4c-1.60001,-0.8 -1.60001,-1.6 -2.39999,-2.39999c-0.79999,-0.8 -1.41226,-1.72179 -0.79999,-3.2c0.43295,-1.04524 1.59998,-2.4 1.59998,-4c0,0 0,-2.4 0,-3.2c0,-3.2 -2.79477,-4.70285 -3.19998,-7.2c-0.12814,-0.78967 0,-2.4 0,-3.2c0,-2.4 -0.6955,-3.30299 0,-5.6c0.83588,-2.76068 2.27185,-3.21033 2.39999,-4c0.40521,-2.49715 0.79999,-2.4 0.79999,-4c0,-1.60001 0,-1.60001 0,-2.4c0,-0.8 0,-2.4 0,-2.4c0.80002,-1.6 1.18903,-3.059 1.60001,-4.8c0.18381,-0.77859 0.61621,-2.4214 0.80002,-3.2c0.41098,-1.74099 0.79999,-4 0.79999,-4.8c0,-0.8 0,-1.6 0.79999,-3.2c0,0 0.80002,-1.6 0.80002,-3.2c0,0 -1.69705,-1.50294 0,-3.2c0.56567,-0.56568 0.79999,-2.4 1.60001,-3.2c0,0 1.59998,-2.4 3.19998,-3.2c0,0 0,0 0,-0.8c0,-0.8 0,-1.6 0,-2.4c0,-0.8 0,-2.4 0,-3.2c0,-1.6 0,-3.19999 -1.60001,-4.8c-0.79999,-0.8 -0.79999,-1.6 -0.79999,-1.6c0,-0.8 0.65955,-1.67831 1.60001,-3.2c0.42059,-0.68052 0,-1.6 0,-2.4c0,-0.8 0,-1.6 0,-3.2c0,-0.8 -0.13849,-3.08218 -0.80002,-4c-1.04596,-1.45119 -0.79999,-2.4 -0.79999,-3.2c0,-0.8 0,-1.6 0,-2.4c0,-0.8 -0.56567,-1.03431 0,-1.6c0.56567,-0.56568 0.79999,-0.8 0.79999,-1.6c0,-0.8 0.23431,-0.2343 0.80002,-0.8c0.56567,-0.56569 0.79999,-2.4 0.79999,-3.2c0,0 0.24524,-1.16704 -0.79999,-1.6c-0.73911,-0.30616 -1.60001,0 -2.39999,0c0,0 -0.37943,0.11948 -0.80002,0.8c-0.94046,1.52169 -2.39999,0.80001 -3.19998,2.4c-0.80002,1.60001 -1.60001,1.6 -2.40002,1.6c0,0 -0.79999,0 -1.59998,0c-1.60001,0 -1.60001,0 -3.20001,0c-0.79999,0 -1.29385,0.06089 -1.60001,0.8c-0.43295,1.04524 -2.09384,0.8609 -2.39999,1.6c-0.43295,1.04524 -1.60001,0.8 -2.39999,0.8c-0.80002,0 -1.64282,0.36761 -3.20001,0c-1.741,-0.41099 -2.95474,-1.96704 -4,-2.4c-0.73911,-0.30614 -1.66089,-0.30614 -2.39999,0c-1.04523,0.43296 -0.46863,1.26863 -1.60001,2.4c-0.56567,0.56568 -1.60001,0.8 -2.39999,1.6c-0.79999,0.8 -0.82138,0.61619 -1.60001,0.8c-1.741,0.41099 -1.83432,1.03432 -2.39999,1.6c-0.56567,0.56568 -1.60001,0 -2.39999,0c-1.60001,0 -5.64331,-0.34614 -8,-0.8c-4.23041,-0.8147 -5.60001,-2.4 -7.20001,-2.4c-0.79999,0 -1.60001,0 -2.39999,0.8c-1.60001,1.60001 -2.39999,1.6 -2.39999,1.6c-0.80002,0.8 -1.60001,1.6 -2.39999,1.6c-0.80002,0 -0.65903,1.18901 -2.40002,1.6c-0.77859,0.1838 -1.64279,0.36761 -3.19998,0c-1.741,-0.41099 -2.50641,-1.2556 -5.60001,-2.4c-1.67773,-0.62064 -4.65955,-0.87831 -5.60001,-2.4c-0.42059,-0.68052 -0.79999,-0.8 -1.60001,-0.8c-0.79999,0 -1.59998,0 -1.59998,0c-1.60001,0 -2.41034,-0.12814 -3.20001,0c-2.49716,0.40523 -2.63434,1.83432 -3.20001,2.4c-0.56567,0.56568 -1.35474,0.36704 -2.39999,0.8c-1.47821,0.61229 -1.7218,0.18772 -3.19998,0.8c-1.04526,0.43296 -1.60001,0.8 -4,0.8c-1.60001,0 -4.72229,-0.17936 -6.40002,-0.8c-3.0936,-1.14439 -3.2428,-1.9676 -4.79999,-1.6c-1.741,0.41099 -3.20001,2.4 -4.79999,3.2c0,0 -0.80002,0 -1.60001,0c-1.60001,0 -2.56934,0.22872 -4.80002,-1.6c-1.74985,-1.43454 -2.63431,-1.03432 -3.19998,-1.6c-0.56567,-0.56569 0.09717,-1.99477 -2.39999,-2.4c-0.78967,-0.12815 -0.8609,-0.30614 -1.60001,0c-1.04526,0.43296 -1.74881,1.35403 -3.20001,2.4c-0.91782,0.66152 -1.66089,1.29385 -2.39999,1.6c-1.04523,0.43296 -1.60001,1.6 -2.39999,1.6c0,0 -0.80002,0 -1.60001,0c-0.79999,0 -2.41034,0.12815 -3.20001,0c-2.49716,-0.40523 -3.50949,-2.33409 -5.59998,-3.2c-0.73911,-0.30616 -2.77942,-1.71948 -3.20001,-2.4c-0.94046,-1.52169 -2.63434,-1.83431 -3.20001,-2.4c-0.56567,-0.56568 -1.74878,0.24595 -3.19998,-0.8c-0.91782,-0.66153 -2.63431,-1.0343 -3.20001,-1.6c-0.56567,-0.56569 -1.66089,-1.29385 -2.39999,-1.6c-1.04523,-0.43296 -0.79999,-0.8 -0.79999,-0.8c-0.80002,0 -1.66092,-1.10616 -2.40002,-0.8c-1.04523,0.43296 -2.73508,0.33508 -4,1.6c-1.26489,1.26491 -1.59998,2.4 -2.39999,2.4c-0.79999,0 -1.45901,1.189 -3.19998,1.6c-0.77863,0.18381 -0.82141,-0.1838 -1.60001,0c-1.741,0.41099 -2.46088,1.29385 -3.20001,1.6c-2.09052,0.86591 -1.83432,1.83431 -2.39999,2.4c-1.13138,1.13138 -3.20547,0.13197 -4.80002,0c-4.84961,-0.40137 -6.95474,-1.16704 -8,-1.6c-0.73911,-0.30614 -2.39999,0 -3.19998,0c-1.60001,0 -2.15405,0.1488 -3.20001,1.6c-0.66153,0.91781 -1.45901,1.18901 -3.19998,1.6c-0.77863,0.18381 -1.60001,0 -3.20001,0c0,0 -1.04358,1.2246 -4,0c-1.04523,-0.43296 -2.43433,-0.56817 -3.20001,-0.8c-2.76068,-0.83587 -4,-1.6 -5.59998,-2.4c0,0 -0.80002,0 -2.40002,0c-0.79999,0 -1.59998,0 -3.19998,0c-0.80002,0 -2.03094,1.28515 -4,2.4c-2.87036,1.62516 -3.88219,1.73848 -4.8,2.4c-1.4512,1.04596 -4,2.4 -4.8,3.2c-0.8,0.8 -4.8609,2.89386 -5.59999,3.2c-1.04526,0.43296 -1.60001,1.6 -2.40001,2.4c-0.8,0.8 -1.35474,1.16704 -2.39999,1.6c-1.47821,0.61229 -3.26089,-0.49385 -4,-0.8c-2.0905,-0.86591 -1.7827,-0.68156 -4,-1.6c-1.04526,-0.43296 -2.5218,-1.41229 -4,-0.8c-2.0905,0.86591 -3.2,1.6 -5.60001,1.6c-1.59999,0 -4.02141,0.1838 -4.8,0c-1.741,-0.411 -3.50201,-0.66447 -4.79999,-1.6c-2.05231,-1.47921 -1.16705,-2.15475 -1.60001,-3.2c-0.30615,-0.7391 -1.83432,-1.83432 -2.39999,-2.4c-0.56569,-0.56569 0,-0.8 -0.8,-1.6c-0.8,-0.8 -0.87831,-1.45954 -2.40001,-2.4c-1.36104,-0.84116 -3.0376,-1.8052 -4,-2.4c-2.15199,-1.33 -3.2,-0.8 -5.59999,-2.4c0,0 -0.8609,0.49385 -1.60001,0.8c-2.0905,0.86591 -2.77008,0.60012 -4.8,3.2c-0.49232,0.63056 -0.8609,0.49386 -1.59999,0.8c-1.04526,0.43296 -1.17943,0.91948 -1.60001,1.6c-0.94046,1.52169 -2.15474,1.16704 -3.2,1.6c-1.47821,0.61229 -3.2,0 -4.8,0c-0.8,0 -1.60001,0 -2.39999,0c-1.60001,0 -3.718,-2.37801 -7.20001,-3.2c-1.55719,-0.3676 -1.59999,-0.8 -2.39999,-0.8c-1.60001,0 -2.39999,0 -4.8,0c-0.8,0 -0.8,0 -1.59999,0c-0.8,0 -1.9095,-0.73409 -4,-1.6c-1.47821,-0.6123 -2.40001,-0.8 -3.20001,-0.8c-1.59999,0 -1.59999,0 -2.39999,0c-0.8,0 -2.25899,0.38901 -4,0.8c-0.77859,0.1838 -4.00389,0.87883 -4.8,0.8c-4.05936,-0.40196 -6.50996,-0.97325 -12.8,-2.4c-2.46715,-0.55962 -5.59999,-1.6 -6.39999,-1.6c0,0 -2.56934,0.57129 -4.8,2.4c-0.87493,0.71727 -1.96704,1.35475 -2.39999,2.4c-0.30614,0.7391 -0.8214,0.6162 -1.60001,0.8c-1.741,0.41099 -3.44801,1.06999 -5.6,2.4c-0.96239,0.5948 -1.6,0.8 -1.6,0.8c-2.4,0 -3.2,0 -8.8,0c-2.39999,0 -7.059,-2.78901 -8.8,-3.2c-0.7786,-0.1838 -2.06863,-1.13138 -3.2,0c-0.56569,0.56569 -2.06863,0.46863 -3.2,1.6c-0.56569,0.56569 -1.6,0.8 -2.4,0.8c-1.6,0 -5.6,-0.8 -5.6,-0.8c-2.4,-0.8 -3.2,-0.8 -3.2,-0.8c-0.8,0 -3.2,-0.8 -4,-0.8c-3.2,0 -5.6,0 -8.8,0c-0.8,0 -2.06863,1.13137 -3.2,0c-0.56569,-0.56569 -3.90284,-2.79477 -6.4,-3.2c-1.57934,-0.25629 -2.4,0 -3.2,0c-2.4,0 -3.2,0 -6.4,-1.6c0,0 -0.8,-0.8 -1.6,-0.8c-0.8,0 -3.2,0 -4.8,0c-0.8,0 -2.4,0 -3.2,0c0,0 -0.8,0 -1.6,0c-1.6,0 -4,0 -7.2,0c-0.8,0 -3.2,0 -4,0c0,0 -0.659,-0.38901 -2.4,-0.8c-0.7786,-0.1838 -0.61548,-0.24258 -1.6,-0.8c-2.87034,-1.62516 -4,-0.8 -4.8,-0.8l-0.8,-0.8l-0.8,0l-0.8,0" id="svg_15" stroke-width="2" stroke="#000" fill="#000000"/>
 </g>
</svg>